<svg style="display: none;">
    <symbol id="telegram" width="32" height="32" viewBox="0 0 32 32" xmlns="http://www.w3.org/2000/svg">
        <path fill-rule="evenodd" clip-rule="evenodd" d="M32 16C32 24.8366 24.8366 32 16 32C7.16344 32 0 24.8366 0 16C0 7.16344 7.16344 0 16 0C24.8366 0 32 7.16344 32 16ZM10.7144 14.5343C9.11157 15.2341 7.46472 15.9532 5.95883 16.7826L5.95873 16.7828C5.17241 17.3585 6.21758 17.7657 7.19803 18.1476C7.35391 18.2084 7.50814 18.2685 7.65313 18.3285C7.77377 18.3656 7.89647 18.4047 8.02079 18.4443C9.11124 18.7917 10.3272 19.1791 11.3858 18.5963C13.1248 17.5973 14.766 16.4424 16.4059 15.2883C16.9432 14.9102 17.4803 14.5322 18.0207 14.1598C18.046 14.1436 18.0746 14.1251 18.1058 14.1048C18.5662 13.8064 19.6016 13.1353 19.2186 14.06C18.313 15.0504 17.3429 15.9272 16.3676 16.8087C15.7103 17.4027 15.0506 17.999 14.4066 18.6336C13.8457 19.0894 13.2633 20.0059 13.8914 20.644C15.3379 21.6567 16.8071 22.6449 18.2755 23.6325C18.7533 23.9538 19.231 24.2752 19.7079 24.5972C20.516 25.2425 21.779 24.7206 21.9567 23.7123C22.0357 23.2485 22.115 22.7847 22.1944 22.3208C22.6328 19.7578 23.0713 17.1938 23.4587 14.6223C23.5113 14.219 23.571 13.8156 23.6307 13.4121C23.7755 12.434 23.9204 11.4547 23.9656 10.4714C23.849 9.49009 22.6592 9.70585 21.997 9.9265C18.5935 11.2216 15.224 12.6126 11.8679 14.0282C11.4877 14.1967 11.1023 14.3649 10.7144 14.5343Z"/>
    </symbol>
    <symbol id="facebook" width="32" height="32" viewBox="0 0 32 32" xmlns="http://www.w3.org/2000/svg">
        <path d="M32 16C32 7.1625 24.8375 0 16 0C7.1625 0 0 7.1625 0 16C0 23.9875 5.85 30.6062 13.5 31.8062V20.625H9.4375V16H13.5V12.475C13.5 8.46563 15.8875 6.25 19.5438 6.25C21.2938 6.25 23.125 6.5625 23.125 6.5625V10.5H21.1063C19.1188 10.5 18.5 11.7344 18.5 13V16H22.9375L22.2281 20.625H18.5V31.8062C26.15 30.6062 32 23.9875 32 16Z"/>
    </symbol>
    <symbol id="instagram" width="48" height="48" viewBox="0 0 48 48" xmlns="http://www.w3.org/2000/svg">
        <path fill-rule="evenodd" clip-rule="evenodd" d="M24 0C10.7452 0 0 10.7452 0 24C0 37.2548 10.7452 48 24 48C37.2548 48 48 37.2548 48 24C48 10.7452 37.2548 0 24 0ZM18.7233 11.2773C20.0886 11.2152 20.5249 11.2 24.0012 11.2H23.9972C27.4746 11.2 27.9092 11.2152 29.2746 11.2773C30.6373 11.3397 31.5679 11.5555 32.384 11.872C33.2266 12.1987 33.9386 12.636 34.6506 13.348C35.3627 14.0595 35.8 14.7736 36.128 15.6155C36.4427 16.4294 36.6587 17.3595 36.7227 18.7222C36.784 20.0876 36.8 20.5238 36.8 24.0001C36.8 27.4764 36.784 27.9116 36.7227 29.277C36.6587 30.6391 36.4427 31.5695 36.128 32.3837C35.8 33.2253 35.3627 33.9394 34.6506 34.6509C33.9394 35.3629 33.2264 35.8013 32.3848 36.1283C31.5703 36.4448 30.6391 36.6605 29.2765 36.7229C27.9111 36.7851 27.4762 36.8003 23.9996 36.8003C20.5236 36.8003 20.0876 36.7851 18.7222 36.7229C17.3598 36.6605 16.4294 36.4448 15.615 36.1283C14.7736 35.8013 14.0595 35.3629 13.3483 34.6509C12.6365 33.9394 12.1992 33.2253 11.872 32.3834C11.5557 31.5695 11.34 30.6394 11.2773 29.2767C11.2155 27.9114 11.2 27.4764 11.2 24.0001C11.2 20.5238 11.216 20.0873 11.2771 18.7219C11.3384 17.3598 11.5544 16.4294 11.8717 15.6152C12.1997 14.7736 12.6371 14.0595 13.3491 13.348C14.0606 12.6363 14.7747 12.1989 15.6166 11.872C16.4305 11.5555 17.3606 11.3397 18.7233 11.2773Z"/>
        <path fill-rule="evenodd" clip-rule="evenodd" d="M22.853 13.5067C23.0759 13.5064 23.3158 13.5065 23.5746 13.5066L24.0013 13.5067C27.4189 13.5067 27.824 13.519 29.1736 13.5803C30.4216 13.6374 31.0989 13.8459 31.5501 14.0211C32.1475 14.2531 32.5733 14.5305 33.0211 14.9785C33.4691 15.4265 33.7464 15.8532 33.979 16.4505C34.1542 16.9012 34.363 17.5785 34.4198 18.8265C34.4811 20.1759 34.4944 20.5812 34.4944 23.9972C34.4944 27.4133 34.4811 27.8186 34.4198 29.168C34.3627 30.416 34.1542 31.0933 33.979 31.544C33.747 32.1413 33.4691 32.5667 33.0211 33.0144C32.5731 33.4624 32.1477 33.7398 31.5501 33.9718C31.0995 34.1478 30.4216 34.3558 29.1736 34.4128C27.8242 34.4742 27.4189 34.4875 24.0013 34.4875C20.5834 34.4875 20.1783 34.4742 18.8289 34.4128C17.5809 34.3552 16.9036 34.1467 16.4521 33.9715C15.8548 33.7395 15.4281 33.4621 14.9801 33.0141C14.5321 32.5661 14.2548 32.1405 14.0222 31.5429C13.847 31.0923 13.6382 30.4149 13.5814 29.1669C13.5201 27.8176 13.5078 27.4122 13.5078 23.994C13.5078 20.5759 13.5201 20.1727 13.5814 18.8233C13.6385 17.5753 13.847 16.898 14.0222 16.4468C14.2542 15.8494 14.5321 15.4228 14.9801 14.9748C15.4281 14.5268 15.8548 14.2494 16.4521 14.0169C16.9033 13.8409 17.5809 13.6329 18.8289 13.5755C20.0097 13.5222 20.4674 13.5062 22.853 13.5035V13.5067ZM30.8339 15.6321C29.9859 15.6321 29.2978 16.3193 29.2978 17.1676C29.2978 18.0156 29.9859 18.7036 30.8339 18.7036C31.6819 18.7036 32.3699 18.0156 32.3699 17.1676C32.3699 16.3196 31.6819 15.6316 30.8339 15.6316V15.6321ZM17.4279 24.0002C17.4279 20.3701 20.3709 17.4269 24.001 17.4268C27.6312 17.4268 30.5736 20.37 30.5736 24.0002C30.5736 27.6304 27.6314 30.5723 24.0013 30.5723C20.3711 30.5723 17.4279 27.6304 17.4279 24.0002Z"/>
        <path d="M24.0012 19.7334C26.3575 19.7334 28.2679 21.6436 28.2679 24.0001C28.2679 26.3564 26.3575 28.2668 24.0012 28.2668C21.6447 28.2668 19.7345 26.3564 19.7345 24.0001C19.7345 21.6436 21.6447 19.7334 24.0012 19.7334Z"/>
    </symbol>
</svg>